<?xml version="1.0" encoding="utf-8"?>
<!-- Generator: Adobe Illustrator 24.2.0, SVG Export Plug-In . SVG Version: 6.00 Build 0)  -->
<svg version="1.1" id="图层_1" xmlns="http://www.w3.org/2000/svg" xmlns:xlink="http://www.w3.org/1999/xlink" x="0px" y="0px"
	 viewBox="0 0 700 700" style="enable-background:new 0 0 700 700;" xml:space="preserve">
<path d="M319.5,172.2L214.2,280l105.2,107.8l27.2-27.2l-59.4-61.1h183.3v-39H287.2l59.4-61.1L319.5,172.2z"/>
<path d="M350,38.2c-133.2,0-241.8,108.6-241.8,241.8S216.8,521.8,350,521.8S591.8,413.2,591.8,280S483.2,38.2,350,38.2L350,38.2z
	 M350,496.4c-119.6,0-216.4-96.7-216.4-216.4S230.4,63.6,350,63.6S566.4,160.4,566.4,280S469.6,496.4,350,496.4L350,496.4z"/>
</svg>
